<svg width="21" height="21" viewBox="0 0 21 21" fill="none" xmlns="http://www.w3.org/2000/svg">
<path fill-rule="evenodd" clip-rule="evenodd" d="M4.52009 11.541L15.3801 11.541C14.6584 12.6714 12.7298 14.0551 11.272 14.8429C10.8841 15.0516 10.7407 15.5352 10.9486 15.9215C11.1581 16.3079 11.6401 16.4545 12.028 16.2441C12.9019 15.7734 17.2616 13.2936 17.2656 10.746L17.2656 10.7444L17.2656 10.7428C17.2656 8.19611 12.9019 5.71631 12.028 5.24472C11.9069 5.1794 11.7779 5.14913 11.6504 5.14913C11.3676 5.14913 11.0928 5.30049 10.9486 5.56735C10.7407 5.95369 10.8841 6.43802 11.272 6.64594C12.7306 7.43457 14.6608 8.81825 15.3817 9.94783L4.52009 9.94783C4.07958 9.94783 3.7235 10.3039 3.7235 10.7444C3.7235 11.1849 4.07958 11.541 4.52009 11.541Z" fill="white"/>
</svg>
